<?xml version="1.0" encoding="utf-8"?>
<!-- Generator: Adobe Illustrator 17.1.0, SVG Export Plug-In . SVG Version: 6.00 Build 0)  -->
<!DOCTYPE svg PUBLIC "-//W3C//DTD SVG 1.1//EN" "http://www.w3.org/Graphics/SVG/1.1/DTD/svg11.dtd">
<svg version="1.1"
	 id="svg2" xmlns:cc="http://creativecommons.org/ns#" xmlns:inkscape="http://www.inkscape.org/namespaces/inkscape" xmlns:sodipodi="http://sodipodi.sourceforge.net/DTD/sodipodi-0.dtd" xmlns:rdf="http://www.w3.org/1999/02/22-rdf-syntax-ns#" xmlns:svg="http://www.w3.org/2000/svg" xmlns:dc="http://purl.org/dc/elements/1.1/"
	 xmlns="http://www.w3.org/2000/svg" xmlns:xlink="http://www.w3.org/1999/xlink" x="0px" y="0px" viewBox="0 0 1500 2500"
	 enable-background="new 0 0 1500 2500" xml:space="preserve">
<script  xlink:href="" id="script3301"></script>
<script  xlink:href="" id="script3299"></script>
<path id="path3538" fill="#372F2C" d="M1078.8,1988.5c-57.7-17.3-109.6-46.2-219.2-132.7c-115.4-86.5-294.2-230.8-432.7-398.1
	s-236.5-351.9-294.2-461.5C80.8,880.8,69.2,840.4,69.2,788.5c0-46.2,5.8-103.8,46.2-155.8c34.6-51.9,98.1-98.1,150-115.4
	c46.2-23.1,80.8-17.3,109.6-5.8c23.1,11.5,40.4,17.3,69.2,46.2c23.1,23.1,57.7,63.5,86.5,98.1c28.8,40.4,51.9,80.8,63.5,115.4
	c17.3,34.6,23.1,69.2,28.8,98.1c0,34.6-5.8,75-40.4,103.8c-28.8,23.1-80.8,46.2-103.8,57.7c-5.8,0-5.8,5.8-11.5,5.8
	c0,5.8,0,17.3,11.5,46.2c23.1,57.7,86.5,161.5,161.5,242.3c75,86.5,173.1,150,230.8,190.4c46.2,34.6,69.2,46.2,80.8,57.7l11.5,5.8
	l11.5-11.5c5.8-5.8,11.5-11.5,23.1-23.1c17.3-23.1,51.9-63.5,103.8-69.2c51.9-11.5,109.6,11.5,155.8,46.2
	c46.2,34.6,92.3,80.8,126.9,132.7c34.6,51.9,57.7,115.4,34.6,178.8c-28.8,63.5-98.1,115.4-155.8,138.5
	C1194.2,2005.8,1136.5,2005.8,1078.8,1988.5z"/>
</svg>
